<svg xmlns="http://www.w3.org/2000/svg" width="1283.85" height="242.128" viewBox="0 0 1283.85 242.128">
  <path id="Path_1" data-name="Path 1" d="M-72.7,737.708c-12.268-47.6,0-93.368,0-93.368s41.971-9.221,86.8-1.2c36.594,6.545,75.221,31.148,93.368,26.668,15.172-3.746,41.343-40.462,123.076-42.44,33.211-.8,80.284,29.655,132.979,30.709,58.266,1.166,126.765-26.4,195.224-30.709,41.483-2.61,84.064,18.993,121.358,15.772,90.667-7.829,162.99-15.772,162.99-15.772s55.211,30.709,159.452,30.709c29.6,0,75.429-16.789,102.261-13.733,66.833,7.61,100.89,39.958,100.89,39.958V869.272H-72.7Z" transform="translate(78.157 -627.145)" fill="#343434"/>
</svg>
